<svg xmlns="http://www.w3.org/2000/svg" xmlns:xlink="http://www.w3.org/1999/xlink" contentStyleType="text/css" height="684px" preserveAspectRatio="none" style="width:1679px;height:684px;background:#FFFFFF;" version="1.1" viewBox="0 0 1679 684" width="1679px" zoomAndPan="magnify"><defs/><g><!--cluster d77d5e503ad1439f585ac494268b351b--><g id="cluster_d77d5e503ad1439f585ac494268b351b"><polygon fill="none" points="16,16,26,6,554,6,554,566.67,544,576.67,16,576.67,16,16" style="stroke:#181818;stroke-width:1.0;"/><line style="stroke:#181818;stroke-width:1.0;" x1="544" x2="554" y1="16" y2="6"/><line style="stroke:#181818;stroke-width:1.0;" x1="16" x2="544" y1="16" y2="16"/><line style="stroke:#181818;stroke-width:1.0;" x1="544" x2="544" y1="16" y2="576.67"/><text fill="#000000" font-family="sans-serif" font-size="14" font-weight="bold" lengthAdjust="spacing" textLength="21" x="270.5" y="31.9951">Db</text></g><!--cluster 86a1b907d54bf7010394bf316e183e67--><g id="cluster_86a1b907d54bf7010394bf316e183e67"><polygon fill="none" points="578,32.3,588,22.3,1046,22.3,1046,566.67,1036,576.67,578,576.67,578,32.3" style="stroke:#181818;stroke-width:1.0;"/><line style="stroke:#181818;stroke-width:1.0;" x1="1036" x2="1046" y1="32.3" y2="22.3"/><line style="stroke:#181818;stroke-width:1.0;" x1="578" x2="1036" y1="32.3" y2="32.3"/><line style="stroke:#181818;stroke-width:1.0;" x1="1036" x2="1036" y1="32.3" y2="576.67"/><text fill="#000000" font-family="sans-serif" font-size="14" font-weight="bold" lengthAdjust="spacing" textLength="43" x="786.5" y="48.2951">Redis</text></g><!--cluster 2567a5ec9705eb7ac2c984033e06189d--><g id="cluster_2567a5ec9705eb7ac2c984033e06189d"><polygon fill="none" points="1132,16,1142,6,1522,6,1522,566.67,1512,576.67,1132,576.67,1132,16" style="stroke:#181818;stroke-width:1.0;"/><line style="stroke:#181818;stroke-width:1.0;" x1="1512" x2="1522" y1="16" y2="6"/><line style="stroke:#181818;stroke-width:1.0;" x1="1132" x2="1512" y1="16" y2="16"/><line style="stroke:#181818;stroke-width:1.0;" x1="1512" x2="1512" y1="16" y2="576.67"/><text fill="#000000" font-family="sans-serif" font-size="14" font-weight="bold" lengthAdjust="spacing" textLength="35" x="1305.5" y="31.9951">Web</text></g><!--entity 355aeb7ac3f8fa43e8d94fbf0e4b8d6c--><g id="elem_355aeb7ac3f8fa43e8d94fbf0e4b8d6c"><rect fill="#F1F1F1" height="160.375" rx="2.5" ry="2.5" style="stroke:#181818;stroke-width:0.5;" width="505" x="32.5" y="46"/><rect fill="#F1F1F1" height="10" style="stroke:#181818;stroke-width:0.5;" width="15" x="517.5" y="51"/><rect fill="#F1F1F1" height="2" style="stroke:#181818;stroke-width:0.5;" width="4" x="515.5" y="53"/><rect fill="#F1F1F1" height="2" style="stroke:#181818;stroke-width:0.5;" width="4" x="515.5" y="57"/><text fill="#000000" font-family="sans-serif" font-size="14" font-weight="bold" lengthAdjust="spacing" textLength="20" x="47.5" y="78.9951">db</text><text fill="#000000" font-family="sans-serif" font-size="14" lengthAdjust="spacing" textLength="4" x="47.5" y="95.292">&#160;</text><text fill="#000000" font-family="sans-serif" font-size="14" lengthAdjust="spacing" textLength="136" x="47.5" y="111.5889">image: postgres:12</text><text fill="#000000" font-family="sans-serif" font-size="14" lengthAdjust="spacing" textLength="99" x="47.5" y="127.8857">restart: always</text><text fill="#000000" font-family="sans-serif" font-size="14" lengthAdjust="spacing" textLength="379" x="47.5" y="144.1826">environment: POSTGRES_USER=${POSTGRES_USER}</text><text fill="#000000" font-family="sans-serif" font-size="14" lengthAdjust="spacing" textLength="465" x="47.5" y="160.4795">environment: POSTGRES_PASSWORD=${POSTGRES_PASSWORD}</text><text fill="#000000" font-family="sans-serif" font-size="14" lengthAdjust="spacing" textLength="345" x="47.5" y="176.7764">environment: POSTGRES_DB=${POSTGRES_DB}</text><text fill="#000000" font-family="sans-serif" font-size="14" lengthAdjust="spacing" textLength="4" x="47.5" y="193.0732">&#160;</text></g><!--entity d5baecb173d637b4e1f821d6b00b6f89--><g id="elem_d5baecb173d637b4e1f821d6b00b6f89"><rect fill="#F1F1F1" height="39.2969" rx="2.5" ry="2.5" style="stroke:#181818;stroke-width:0.5;" width="189" x="190.5" y="521.38"/><polygon fill="#F1F1F1" points="362.5,526.38,362.5,540.38,374.5,540.38,374.5,532.38,368.5,526.38,362.5,526.38" style="stroke:#181818;stroke-width:0.5;"/><line style="stroke:#181818;stroke-width:0.5;" x1="368.5" x2="368.5" y1="526.38" y2="532.38"/><line style="stroke:#181818;stroke-width:0.5;" x1="374.5" x2="368.5" y1="532.38" y2="532.38"/><text fill="#000000" font-family="sans-serif" font-size="14" lengthAdjust="spacing" textLength="159" x="200.5" y="547.3751">/var/lib/postgresql/data</text></g><!--entity 3c217ea98bfddc0f9ff1c849de325d93--><g id="elem_3c217ea98bfddc0f9ff1c849de325d93"><rect fill="#F1F1F1" height="127.7813" rx="2.5" ry="2.5" style="stroke:#181818;stroke-width:0.5;" width="435" x="594.5" y="62.3"/><rect fill="#F1F1F1" height="10" style="stroke:#181818;stroke-width:0.5;" width="15" x="1009.5" y="67.3"/><rect fill="#F1F1F1" height="2" style="stroke:#181818;stroke-width:0.5;" width="4" x="1007.5" y="69.3"/><rect fill="#F1F1F1" height="2" style="stroke:#181818;stroke-width:0.5;" width="4" x="1007.5" y="73.3"/><text fill="#000000" font-family="sans-serif" font-size="14" font-weight="bold" lengthAdjust="spacing" textLength="40" x="609.5" y="95.2951">redis</text><text fill="#000000" font-family="sans-serif" font-size="14" lengthAdjust="spacing" textLength="4" x="609.5" y="111.592">&#160;</text><text fill="#000000" font-family="sans-serif" font-size="14" lengthAdjust="spacing" textLength="99" x="609.5" y="127.8889">restart: always</text><text fill="#000000" font-family="sans-serif" font-size="14" lengthAdjust="spacing" textLength="112" x="609.5" y="144.1857">image: redis:5.0</text><text fill="#000000" font-family="sans-serif" font-size="14" lengthAdjust="spacing" textLength="395" x="609.5" y="160.4826">environment: REDIS_PASSWORD=${REDIS_PASSWORD}</text><text fill="#000000" font-family="sans-serif" font-size="14" lengthAdjust="spacing" textLength="4" x="609.5" y="176.7795">&#160;</text></g><!--entity 09876deab5af8de0c168ec3aa053742d--><g id="elem_09876deab5af8de0c168ec3aa053742d"><ellipse cx="939" cy="296.38" fill="#F1F1F1" rx="8" ry="8" style="stroke:#181818;stroke-width:0.5;"/><text fill="#000000" font-family="sans-serif" font-size="14" lengthAdjust="spacing" textLength="36" x="921" y="326.3751">6379</text></g><!--entity 9cf0c6c68f3d132e5675185336a3f1f5--><g id="elem_9cf0c6c68f3d132e5675185336a3f1f5"><rect fill="#F1F1F1" height="39.2969" rx="2.5" ry="2.5" style="stroke:#181818;stroke-width:0.5;" width="114" x="755" y="521.38"/><polygon fill="#F1F1F1" points="852,526.38,852,540.38,864,540.38,864,532.38,858,526.38,852,526.38" style="stroke:#181818;stroke-width:0.5;"/><line style="stroke:#181818;stroke-width:0.5;" x1="858" x2="858" y1="526.38" y2="532.38"/><line style="stroke:#181818;stroke-width:0.5;" x1="864" x2="858" y1="532.38" y2="532.38"/><text fill="#000000" font-family="sans-serif" font-size="14" lengthAdjust="spacing" textLength="84" x="765" y="547.3751">/var/lib/redis</text></g><!--entity 04a565d19766ebe0348853b17c395bd1--><g id="elem_04a565d19766ebe0348853b17c395bd1"><rect fill="#F1F1F1" height="160.375" rx="2.5" ry="2.5" style="stroke:#181818;stroke-width:0.5;" width="358" x="1148" y="46"/><rect fill="#F1F1F1" height="10" style="stroke:#181818;stroke-width:0.5;" width="15" x="1486" y="51"/><rect fill="#F1F1F1" height="2" style="stroke:#181818;stroke-width:0.5;" width="4" x="1484" y="53"/><rect fill="#F1F1F1" height="2" style="stroke:#181818;stroke-width:0.5;" width="4" x="1484" y="57"/><text fill="#000000" font-family="sans-serif" font-size="14" font-weight="bold" lengthAdjust="spacing" textLength="34" x="1163" y="78.9951">web</text><text fill="#000000" font-family="sans-serif" font-size="14" lengthAdjust="spacing" textLength="4" x="1163" y="95.292">&#160;</text><text fill="#000000" font-family="sans-serif" font-size="14" lengthAdjust="spacing" textLength="318" x="1163" y="111.5889">image: ghcr.io/hactar-is/openownership:latest</text><text fill="#000000" font-family="sans-serif" font-size="14" lengthAdjust="spacing" textLength="290" x="1163" y="127.8857">environment: SERVER_ENV=development</text><text fill="#000000" font-family="sans-serif" font-size="14" lengthAdjust="spacing" textLength="245" x="1163" y="144.1826">environment: ENVKEY=${ENVKEY}</text><text fill="#000000" font-family="sans-serif" font-size="14" lengthAdjust="spacing" textLength="190" x="1163" y="160.4795">environment: INDOCKER=1</text><text fill="#000000" font-family="sans-serif" font-size="14" lengthAdjust="spacing" textLength="99" x="1163" y="176.7764">restart: always</text><text fill="#000000" font-family="sans-serif" font-size="14" lengthAdjust="spacing" textLength="4" x="1163" y="193.0732">&#160;</text></g><!--entity fd433df176955d196b161b0a41a19970--><g id="elem_fd433df176955d196b161b0a41a19970"><ellipse cx="1390" cy="296.38" fill="#F1F1F1" rx="8" ry="8" style="stroke:#181818;stroke-width:0.5;"/><text fill="#000000" font-family="sans-serif" font-size="14" lengthAdjust="spacing" textLength="36" x="1372" y="326.3751">8000</text></g><!--entity 880fe43dfa96c1caa7990e453d64b2e1--><g id="elem_880fe43dfa96c1caa7990e453d64b2e1"><ellipse cx="1479" cy="296.38" fill="#F1F1F1" rx="8" ry="8" style="stroke:#181818;stroke-width:0.5;"/><text fill="#000000" font-family="sans-serif" font-size="14" lengthAdjust="spacing" textLength="36" x="1461" y="326.3751">5000</text></g><!--entity 0363bb6c3550fd8e7e369a0d772aecad--><g id="elem_0363bb6c3550fd8e7e369a0d772aecad"><rect fill="#F1F1F1" height="39.2969" rx="2.5" ry="2.5" style="stroke:#181818;stroke-width:0.5;" width="113" x="1161.5" y="521.38"/><polygon fill="#F1F1F1" points="1257.5,526.38,1257.5,540.38,1269.5,540.38,1269.5,532.38,1263.5,526.38,1257.5,526.38" style="stroke:#181818;stroke-width:0.5;"/><line style="stroke:#181818;stroke-width:0.5;" x1="1263.5" x2="1263.5" y1="526.38" y2="532.38"/><line style="stroke:#181818;stroke-width:0.5;" x1="1269.5" x2="1263.5" y1="532.38" y2="532.38"/><text fill="#000000" font-family="sans-serif" font-size="14" lengthAdjust="spacing" textLength="83" x="1171.5" y="547.3751">/usr/srv/app</text></g><!--entity 6e96e2b91f2ae46de0c040d2e769a1b4--><g id="elem_6e96e2b91f2ae46de0c040d2e769a1b4"><rect fill="#F1F1F1" height="39.2969" rx="2.5" ry="2.5" style="stroke:#181818;stroke-width:0.5;" width="160" x="1309" y="521.38"/><polygon fill="#F1F1F1" points="1452,526.38,1452,540.38,1464,540.38,1464,532.38,1458,526.38,1452,526.38" style="stroke:#181818;stroke-width:0.5;"/><line style="stroke:#181818;stroke-width:0.5;" x1="1458" x2="1458" y1="526.38" y2="532.38"/><line style="stroke:#181818;stroke-width:0.5;" x1="1464" x2="1458" y1="532.38" y2="532.38"/><text fill="#000000" font-family="sans-serif" font-size="14" lengthAdjust="spacing" textLength="130" x="1319" y="547.3751">/usr/srv/app/media</text></g><!--entity 8973849752e7a3585a53ea6a092817cd--><g id="elem_8973849752e7a3585a53ea6a092817cd"><rect fill="#F1F1F1" height="39.2969" rx="2.5" ry="2.5" style="stroke:#181818;stroke-width:0.5;" width="150" x="210" y="639.67"/><polygon fill="#F1F1F1" points="343,644.67,343,658.67,355,658.67,355,650.67,349,644.67,343,644.67" style="stroke:#181818;stroke-width:0.5;"/><line style="stroke:#181818;stroke-width:0.5;" x1="349" x2="349" y1="644.67" y2="650.67"/><line style="stroke:#181818;stroke-width:0.5;" x1="355" x2="349" y1="650.67" y2="650.67"/><text fill="#000000" font-family="sans-serif" font-size="14" lengthAdjust="spacing" textLength="120" x="220" y="665.6651">./docker/db/data/</text></g><!--entity cbc38391c8c7eafac297cc94e9d9dac9--><g id="elem_cbc38391c8c7eafac297cc94e9d9dac9"><rect fill="#F1F1F1" height="39.2969" rx="2.5" ry="2.5" style="stroke:#181818;stroke-width:0.5;" width="126" x="749" y="639.67"/><polygon fill="#F1F1F1" points="858,644.67,858,658.67,870,658.67,870,650.67,864,644.67,858,644.67" style="stroke:#181818;stroke-width:0.5;"/><line style="stroke:#181818;stroke-width:0.5;" x1="864" x2="864" y1="644.67" y2="650.67"/><line style="stroke:#181818;stroke-width:0.5;" x1="870" x2="864" y1="650.67" y2="650.67"/><text fill="#000000" font-family="sans-serif" font-size="14" lengthAdjust="spacing" textLength="96" x="759" y="665.6651">./docker/redis</text></g><!--entity 2fb157e97b2c87e94722f78aa96cb07e--><g id="elem_2fb157e97b2c87e94722f78aa96cb07e"><rect fill="#F1F1F1" height="39.2969" rx="2.5" ry="2.5" style="stroke:#181818;stroke-width:0.5;" width="70" x="1183" y="639.67"/><polygon fill="#F1F1F1" points="1236,644.67,1236,658.67,1248,658.67,1248,650.67,1242,644.67,1236,644.67" style="stroke:#181818;stroke-width:0.5;"/><line style="stroke:#181818;stroke-width:0.5;" x1="1242" x2="1242" y1="644.67" y2="650.67"/><line style="stroke:#181818;stroke-width:0.5;" x1="1248" x2="1242" y1="650.67" y2="650.67"/><text fill="#000000" font-family="sans-serif" font-size="14" lengthAdjust="spacing" textLength="40" x="1193" y="665.6651">./app/</text></g><!--entity 7f8f41ddd636c4cb9faabe8db1ce0dae--><g id="elem_7f8f41ddd636c4cb9faabe8db1ce0dae"><rect fill="#F1F1F1" height="39.2969" rx="2.5" ry="2.5" style="stroke:#181818;stroke-width:0.5;" width="112" x="1333" y="639.67"/><polygon fill="#F1F1F1" points="1428,644.67,1428,658.67,1440,658.67,1440,650.67,1434,644.67,1428,644.67" style="stroke:#181818;stroke-width:0.5;"/><line style="stroke:#181818;stroke-width:0.5;" x1="1434" x2="1434" y1="644.67" y2="650.67"/><line style="stroke:#181818;stroke-width:0.5;" x1="1440" x2="1434" y1="650.67" y2="650.67"/><text fill="#000000" font-family="sans-serif" font-size="14" lengthAdjust="spacing" textLength="82" x="1343" y="665.6651">./app/media</text></g><!--entity c896127ab1831787795a6fc7c8465c9a--><g id="elem_c896127ab1831787795a6fc7c8465c9a"><ellipse cx="1089" cy="431.38" fill="#F1F1F1" rx="8" ry="8" style="stroke:#181818;stroke-width:0.5;"/><text fill="#000000" font-family="sans-serif" font-size="14" lengthAdjust="spacing" textLength="36" x="1071" y="461.3751">6379</text></g><!--entity 1624c420083928ef3e240dd88f2e52f0--><g id="elem_1624c420083928ef3e240dd88f2e52f0"><ellipse cx="1565" cy="431.38" fill="#F1F1F1" rx="8" ry="8" style="stroke:#181818;stroke-width:0.5;"/><text fill="#000000" font-family="sans-serif" font-size="14" lengthAdjust="spacing" textLength="36" x="1547" y="461.3751">8000</text></g><!--entity 5f4021161759ed34e883af07df742a57--><g id="elem_5f4021161759ed34e883af07df742a57"><ellipse cx="1654" cy="431.38" fill="#F1F1F1" rx="8" ry="8" style="stroke:#181818;stroke-width:0.5;"/><text fill="#000000" font-family="sans-serif" font-size="14" lengthAdjust="spacing" textLength="36" x="1636" y="461.3751">5000</text></g><!--link d5baecb173d637b4e1f821d6b00b6f89 to 8973849752e7a3585a53ea6a092817cd--><g id="link_d5baecb173d637b4e1f821d6b00b6f89_8973849752e7a3585a53ea6a092817cd"><path codeLine="50" d="M285,560.97 C285,582.59 285,617.76 285,639.39 " fill="none" id="d5baecb173d637b4e1f821d6b00b6f89-8973849752e7a3585a53ea6a092817cd" style="stroke:#181818;stroke-width:1.0;"/><text fill="#000000" font-family="sans-serif" font-size="13" lengthAdjust="spacing" textLength="64" x="286" y="605.7369">delegated</text></g><!--link 355aeb7ac3f8fa43e8d94fbf0e4b8d6c to d5baecb173d637b4e1f821d6b00b6f89--><g id="link_355aeb7ac3f8fa43e8d94fbf0e4b8d6c_d5baecb173d637b4e1f821d6b00b6f89"><path codeLine="51" d="M285,206.79 C285,305.2 285,460.39 285,515.15 " fill="none" id="355aeb7ac3f8fa43e8d94fbf0e4b8d6c-to-d5baecb173d637b4e1f821d6b00b6f89" style="stroke:#181818;stroke-width:1.0;stroke-dasharray:7.0,7.0;"/><polygon fill="#181818" points="285,521.15,289,512.15,285,516.15,281,512.15,285,521.15" style="stroke:#181818;stroke-width:1.0;"/><text fill="#000000" font-family="sans-serif" font-size="13" lengthAdjust="spacing" textLength="23" x="286" y="368.4469">use</text></g><!--link 3c217ea98bfddc0f9ff1c849de325d93 to 09876deab5af8de0c168ec3aa053742d--><g id="link_3c217ea98bfddc0f9ff1c849de325d93_09876deab5af8de0c168ec3aa053742d"><path codeLine="52" d="M859.65,190.29 C887.66,227.39 920.07,270.31 933.12,287.58 " fill="none" id="3c217ea98bfddc0f9ff1c849de325d93-09876deab5af8de0c168ec3aa053742d" style="stroke:#181818;stroke-width:1.0;"/></g><!--link 09876deab5af8de0c168ec3aa053742d to c896127ab1831787795a6fc7c8465c9a--><g id="link_09876deab5af8de0c168ec3aa053742d_c896127ab1831787795a6fc7c8465c9a"><path codeLine="53" d="M947.93,305.3 C974.68,329.01 1053.87,399.23 1080.3,422.66 " fill="none" id="09876deab5af8de0c168ec3aa053742d-c896127ab1831787795a6fc7c8465c9a" style="stroke:#181818;stroke-width:1.0;"/></g><!--link 9cf0c6c68f3d132e5675185336a3f1f5 to cbc38391c8c7eafac297cc94e9d9dac9--><g id="link_9cf0c6c68f3d132e5675185336a3f1f5_cbc38391c8c7eafac297cc94e9d9dac9"><path codeLine="54" d="M812,560.97 C812,582.59 812,617.76 812,639.39 " fill="none" id="9cf0c6c68f3d132e5675185336a3f1f5-cbc38391c8c7eafac297cc94e9d9dac9" style="stroke:#181818;stroke-width:1.0;"/><text fill="#000000" font-family="sans-serif" font-size="13" lengthAdjust="spacing" textLength="64" x="813" y="605.7369">delegated</text></g><!--link 3c217ea98bfddc0f9ff1c849de325d93 to 9cf0c6c68f3d132e5675185336a3f1f5--><g id="link_3c217ea98bfddc0f9ff1c849de325d93_9cf0c6c68f3d132e5675185336a3f1f5"><path codeLine="55" d="M812,190.34 C812,286.11 812,457.07 812,515.07 " fill="none" id="3c217ea98bfddc0f9ff1c849de325d93-to-9cf0c6c68f3d132e5675185336a3f1f5" style="stroke:#181818;stroke-width:1.0;stroke-dasharray:7.0,7.0;"/><polygon fill="#181818" points="812,521.07,816,512.07,812,516.07,808,512.07,812,521.07" style="stroke:#181818;stroke-width:1.0;"/><text fill="#000000" font-family="sans-serif" font-size="13" lengthAdjust="spacing" textLength="23" x="813" y="368.4469">use</text></g><!--link 04a565d19766ebe0348853b17c395bd1 to fd433df176955d196b161b0a41a19970--><g id="link_04a565d19766ebe0348853b17c395bd1_fd433df176955d196b161b0a41a19970"><path codeLine="56" d="M1356.84,206.85 C1369.05,239.45 1381.6,272.95 1387.11,287.66 " fill="none" id="04a565d19766ebe0348853b17c395bd1-fd433df176955d196b161b0a41a19970" style="stroke:#181818;stroke-width:1.0;"/></g><!--link fd433df176955d196b161b0a41a19970 to 1624c420083928ef3e240dd88f2e52f0--><g id="link_fd433df176955d196b161b0a41a19970_1624c420083928ef3e240dd88f2e52f0"><path codeLine="57" d="M1398.92,304.15 C1429.01,327.02 1526.56,401.16 1556.31,423.77 " fill="none" id="fd433df176955d196b161b0a41a19970-1624c420083928ef3e240dd88f2e52f0" style="stroke:#181818;stroke-width:1.0;"/></g><!--link 04a565d19766ebe0348853b17c395bd1 to 880fe43dfa96c1caa7990e453d64b2e1--><g id="link_04a565d19766ebe0348853b17c395bd1_880fe43dfa96c1caa7990e453d64b2e1"><path codeLine="58" d="M1398.99,206.85 C1428.46,239.45 1458.73,272.95 1472.02,287.66 " fill="none" id="04a565d19766ebe0348853b17c395bd1-880fe43dfa96c1caa7990e453d64b2e1" style="stroke:#181818;stroke-width:1.0;"/></g><!--link 880fe43dfa96c1caa7990e453d64b2e1 to 5f4021161759ed34e883af07df742a57--><g id="link_880fe43dfa96c1caa7990e453d64b2e1_5f4021161759ed34e883af07df742a57"><path codeLine="59" d="M1487.92,304.15 C1518.01,327.02 1615.56,401.16 1645.31,423.77 " fill="none" id="880fe43dfa96c1caa7990e453d64b2e1-5f4021161759ed34e883af07df742a57" style="stroke:#181818;stroke-width:1.0;"/></g><!--link 0363bb6c3550fd8e7e369a0d772aecad to 2fb157e97b2c87e94722f78aa96cb07e--><g id="link_0363bb6c3550fd8e7e369a0d772aecad_2fb157e97b2c87e94722f78aa96cb07e"><path codeLine="60" d="M1218,560.97 C1218,582.59 1218,617.76 1218,639.39 " fill="none" id="0363bb6c3550fd8e7e369a0d772aecad-2fb157e97b2c87e94722f78aa96cb07e" style="stroke:#181818;stroke-width:1.0;"/><text fill="#000000" font-family="sans-serif" font-size="13" lengthAdjust="spacing" textLength="46" x="1219" y="605.7369">cached</text></g><!--link 04a565d19766ebe0348853b17c395bd1 to 0363bb6c3550fd8e7e369a0d772aecad--><g id="link_04a565d19766ebe0348853b17c395bd1_0363bb6c3550fd8e7e369a0d772aecad"><path codeLine="61" d="M1305.98,206.79 C1280,305.2 1238.9719,460.5888 1224.5119,515.3488 " fill="none" id="04a565d19766ebe0348853b17c395bd1-to-0363bb6c3550fd8e7e369a0d772aecad" style="stroke:#181818;stroke-width:1.0;stroke-dasharray:7.0,7.0;"/><polygon fill="#181818" points="1222.98,521.15,1229.1452,513.4695,1224.2566,516.3157,1221.4104,511.427,1222.98,521.15" style="stroke:#181818;stroke-width:1.0;"/><text fill="#000000" font-family="sans-serif" font-size="13" lengthAdjust="spacing" textLength="23" x="1267" y="368.4469">use</text></g><!--link 6e96e2b91f2ae46de0c040d2e769a1b4 to 7f8f41ddd636c4cb9faabe8db1ce0dae--><g id="link_6e96e2b91f2ae46de0c040d2e769a1b4_7f8f41ddd636c4cb9faabe8db1ce0dae"><path codeLine="62" d="M1389,560.97 C1389,582.59 1389,617.76 1389,639.39 " fill="none" id="6e96e2b91f2ae46de0c040d2e769a1b4-7f8f41ddd636c4cb9faabe8db1ce0dae" style="stroke:#181818;stroke-width:1.0;"/><text fill="#000000" font-family="sans-serif" font-size="13" lengthAdjust="spacing" textLength="64" x="1390" y="605.7369">delegated</text></g><!--link 04a565d19766ebe0348853b17c395bd1 to 6e96e2b91f2ae46de0c040d2e769a1b4--><g id="link_04a565d19766ebe0348853b17c395bd1_6e96e2b91f2ae46de0c040d2e769a1b4"><path codeLine="63" d="M1332.74,206.49 C1335.84,242.83 1340.24,286.39 1346,325.38 C1356.75,398.13 1374.454,477.6852 1383.124,515.0552 " fill="none" id="04a565d19766ebe0348853b17c395bd1-to-6e96e2b91f2ae46de0c040d2e769a1b4" style="stroke:#181818;stroke-width:1.0;stroke-dasharray:7.0,7.0;"/><polygon fill="#181818" points="1384.48,520.9,1386.3425,511.2289,1383.35,516.0294,1378.5495,513.0369,1384.48,520.9" style="stroke:#181818;stroke-width:1.0;"/><text fill="#000000" font-family="sans-serif" font-size="13" lengthAdjust="spacing" textLength="23" x="1354" y="368.4469">use</text></g><!--SRC=[ZPHjQnj74CVVtwSuH5-q1kls-K6GGbE94W9naDk4KagOtPsLHIMTUbBibE3lthcJ75jApERLFStEpVpcFtzOhTgxzVBJShEeDct2UZGDenfsTR8sQTHCGk9A-goTXgYy4iO5gNceFrTrRDVRTeERVIsr1WmMeimkWvBeabSvP8Ogk6HY_LTrSP72nKLLBTUmm4czRNVxHOUx2HSLNVRGxISrhExWlrs5czjbrsxMb7bIlxsw_lst-Upwmn_Ni_cB7pwVFDy_4_lsb-lhzrVpwTFuXtVFdPc-V1ezVNbVLNzNLDOoGzpNe-OMkcQr3Cr3vV-kcWHxED3I0J06RcKoqWQ5F3l1amcC1PETh-wFTEUObhlXY3F0WsT4MOLi6MVIquta1hcJQEmPu2YuHV0kv9GYopvd7fto2QNGoSi1SDSdxncV0pqo7xvFz9YT4fZFfgzEa9s-63Zy-5CzeixyK3hppfg443Habv15RXn62S2qj4gaRr7hlZJkOsRHHEEoJ5mArCPgxhIK1cJcMNzXzHuFKXGK0HgZjqmF8XFHEyMaH6Quy-cK55EWZKxSMsCm89FAKN8QJPHUXyG7KdVuL8kBczYDbsrpGoL3TxdSDUqMD-tT1hlTpN8xMS6UW9v28_6zcyq_pDwyUv7m5bVjjdz_6aCVNy_-9A27cpFXlNeplVhrDMcQVpMl8t3761i8vAIaJ9bRutNVcWdSyC10SU2Ui0pH-Y7QEPPHKJnu4ta4iDxJ8chIfWe2-TFnVDnrpQwxRM2xFOnM6Xc2YRJGB2U75gNnmCWD10aSqZDdcpMDzx0A1hr14JpFT4APNXvCiIIGYYV5AnhlOuvnazhu3tPD2iCoDOS6l9MaRQlf4CZUURH4CC2yS3J7zAq4Z_gA8KedFQr7f8sXCE5jZ5wXJpv1z2Ud-zeF8ik1QulU1X4TNPKL8bi7FSF0B7vrwh5ZIvwdU4gq-YQg67m62EI0WKTa2V1qUQBpXWiBWTQSMsUjrs1ojBJDHaSFfvFdHgYe16FKaN2O9Gg2cPpBj3WYdqrUPyK49srOxJ59XSv9oEGncTOIjArAFbLVfiiY_dfIZnAkS45haKPLqVl7upGU_rpqo3xjnnrImfBNzKKMFQWKC6Gf3gDaLeSi1SMT0olrTmHM_FS3iABbzKKMFQGKC6Gfwl6xQYawL2bWo59KUydCXYobnUyfHuWt_UIApHqdL_pnm-HAPZbKMFANCtbzRv75Vn-B_1y0]--></g></svg>