<?xml version="1.0" encoding="UTF-8"?>
<svg width="55px" height="59px" viewBox="0 0 55 59" version="1.1" xmlns="http://www.w3.org/2000/svg" xmlns:xlink="http://www.w3.org/1999/xlink">
    <title>Mask</title>
    <defs>
        <path d="M43,0 C49.0751322,0 54,4.92486775 54,11 C54,17.0751322 49.0751322,22 43,22 C40.0106492,22 37.2998079,20.8075591 35.3171884,18.8723896 L35.1266451,18.6818225 L35.1266451,18.6818225 L21.6198982,27.1228134 C21.8677635,28.0399184 22,29.0045165 22,30 C22,30.5651045 21.9573871,31.1202562 21.8751995,31.6624171 L34.7580784,39.7148403 C36.7734726,37.4364824 39.7189821,36 43,36 C49.0751322,36 54,40.9248678 54,47 C54,53.0751322 49.0751322,58 43,58 C36.9248678,58 32,53.0751322 32,47 C32,46.0045165 32.1322365,45.0399184 32.3801018,44.1228134 L19.9713107,36.3667043 C17.9777546,39.1707498 14.7024994,41 11,41 C4.92486775,41 0,36.0751322 0,30 C0,23.9248678 4.92486775,19 11,19 C14.2810179,19 17.2265274,20.4364824 19.2419216,22.7148403 L32.537043,14.4046874 C32.1884308,13.3326348 32,12.1883226 32,11 C32,4.92486775 36.9248678,0 43,0 Z M43,41 C39.6862915,41 37,43.6862915 37,47 C37,50.3137085 39.6862915,53 43,53 C46.3137085,53 49,50.3137085 49,47 C49,43.6862915 46.3137085,41 43,41 Z M11,24 C7.6862915,24 5,26.6862915 5,30 C5,33.3137085 7.6862915,36 11,36 C14.3137085,36 17,33.3137085 17,30 C17,26.6862915 14.3137085,24 11,24 Z M43,5 C39.6862915,5 37,7.6862915 37,11 C37,14.3137085 39.6862915,17 43,17 C46.3137085,17 49,14.3137085 49,11 C49,7.6862915 46.3137085,5 43,5 Z" id="path-1"></path>
    </defs>
    <g id="Master-Symbols" stroke="none" stroke-width="1" fill="none" fill-rule="evenodd">
        <g id="1---Colour/Primary" transform="translate(0.500000, 0.500000)">
            <mask id="mask-2" fill="white">
                <use xlink:href="#path-1"></use>
            </mask>
            <use id="Mask" fill="#979797" fill-rule="nonzero" xlink:href="#path-1"></use>
        </g>
    </g>
</svg>