<?xml version="1.0" standalone="no"?>
<!DOCTYPE svg PUBLIC "-//W3C//DTD SVG 20010904//EN"
 "http://www.w3.org/TR/2001/REC-SVG-20010904/DTD/svg10.dtd">
<svg version="1.0" xmlns="http://www.w3.org/2000/svg"
 width="512.000000pt" height="512.000000pt" viewBox="0 0 512.000000 512.000000"
 preserveAspectRatio="xMidYMid meet">
<metadata>
Created by potrace 1.14, written by Peter Selinger 2001-2017
</metadata>
<g transform="translate(0.000000,512.000000) scale(0.100000,-0.100000)"
fill="#000000" stroke="none">
<path d="M1115 4636 c-304 -59 -543 -282 -621 -581 -25 -96 -25 -284 0 -380
38 -145 108 -265 218 -372 124 -121 278 -193 463 -216 l96 -12 34 -79 c110
-254 311 -417 591 -480 133 -29 250 -37 684 -46 443 -8 538 -16 670 -56 169
-50 312 -170 392 -329 35 -68 34 -72 -24 -90 -420 -138 -640 -603 -483 -1021
87 -232 292 -414 540 -480 96 -25 284 -25 380 0 229 60 428 225 522 434 179
397 7 855 -389 1036 -69 32 -184 66 -221 66 -16 0 -17 39 -17 525 0 412 3 526
13 529 6 2 46 12 87 21 138 32 256 98 364 203 384 375 282 1012 -200 1255
-447 225 -991 -29 -1111 -520 -24 -97 -21 -275 6 -375 66 -250 248 -450 490
-538 43 -16 102 -32 130 -36 l51 -7 -1 -441 c0 -418 -1 -440 -17 -416 -159
231 -331 338 -616 386 -112 18 -438 33 -729 34 -450 0 -656 52 -805 202 -34
35 -74 80 -88 101 -28 41 -78 147 -73 151 2 1 33 13 69 25 191 67 366 228 450
415 48 106 64 189 64 321 0 132 -16 215 -64 322 -96 212 -295 379 -520 437
-90 23 -249 29 -335 12z m260 -171 c327 -68 539 -392 470 -720 -68 -327 -392
-539 -720 -470 -333 70 -549 412 -465 739 82 322 394 518 715 451z m2620 0
c327 -68 539 -392 470 -720 -48 -227 -221 -407 -451 -465 -328 -84 -669 131
-739 465 -90 428 292 810 720 720z"/>
</g>
</svg>
