<svg id="Lockups" xmlns="http://www.w3.org/2000/svg" viewBox="0 0 669 198"><defs><style>.cls-1{fill:#3b25d8;}</style></defs><g id="Wordmark"><path d="M0,37.43q.29-18,9.45-27.69T34.12,0Q50.19.09,59.17,9.64t9.07,27.79Q68.06,55.39,59,65T34.12,74.86Q17.77,74.77,9,65.12T0,37.43M34.12,63.52A14.69,14.69,0,0,0,47,56.9q4.44-6.52,4.53-19.47-.09-12.94-4.82-19.66a14.87,14.87,0,0,0-12.57-6.62,14.45,14.45,0,0,0-12.76,6.62q-4.44,6.53-4.54,19.66T21.27,57q4.35,6.51,12.85,6.52"/><path d="M76.8,22.68H91.26v8.23h.19a17.71,17.71,0,0,1,5.76-6.43,19,19,0,0,1,10.21-2.93A18.33,18.33,0,0,1,122,27.69q5.56,6.24,5.76,20.14-.09,12.75-5.95,19.75t-15.79,7a16.89,16.89,0,0,1-8.88-2.27,13,13,0,0,1-5-5.3h-.29V91.12h-15ZM91.64,50.76a17.26,17.26,0,0,0,2.55,9.83,9.09,9.09,0,0,0,7.84,4,8.55,8.55,0,0,0,7.66-4.16q2.75-4.26,2.74-12.38t-2.55-12.1q-2.55-4.07-7.94-4.07a9.33,9.33,0,0,0-7.37,3.59Q91.74,39,91.64,45.27Z"/><path d="M181.69,58.6a17,17,0,0,1-7.47,11.72q-6.15,4.26-16.54,4.35-12.28-.19-18.62-7.28t-6.43-19.47q.09-11.81,6.62-19.09t18.62-7.37q12.75.28,18.52,7.46t5.77,18.62v4H147.75q.48,6.81,3.12,9.93a8.87,8.87,0,0,0,7.28,3.12q4.35-.09,6.24-1.89a7.65,7.65,0,0,0,2.55-4.07ZM166.85,42.25a16.29,16.29,0,0,0-2.56-8.41,7.4,7.4,0,0,0-6.42-3,8.48,8.48,0,0,0-7.09,3.12c-1.64,2.08-2.65,5.08-3,9h19.1Z"/><path d="M222.93,43.76a36.09,36.09,0,0,0-.28-4.82,8.37,8.37,0,0,0-1.23-3.59,5.79,5.79,0,0,0-2.74-2.17,8.7,8.7,0,0,0-3.78-.76q-5,0-7.66,3t-2.55,8.6v29.3h-15V22.69h14.46V31h.19a17.11,17.11,0,0,1,6-6.61q4-2.66,10.49-2.74,9.08,0,13.14,4.72T238,40.45v32.9h-15Z"/><path d="M0,138.92q.29-18,9.48-27.76t24.73-9.77q16.11.1,25.12,9.67t9.1,27.86q-.2,18-9.29,27.68t-24.93,9.86Q17.82,176.35,9,166.69T0,138.92m34.21,26.16a14.72,14.72,0,0,0,12.89-6.63q4.45-6.54,4.55-19.53-.09-13-4.83-19.71a14.92,14.92,0,0,0-12.61-6.63,14.48,14.48,0,0,0-12.79,6.63q-4.46,6.54-4.55,19.71t4.45,19.62q4.37,6.54,12.89,6.54"/><path d="M72.35,124.14h14.5l6.73,25.59c.63,2.72,1.11,5.15,1.42,7.3s.48,3.28.48,3.41h.28c0-.13.25-1.26.76-3.41s1-4.55,1.8-7.21l7.58-25.68h12.23l7.58,25.68q1.14,4,1.8,7.21c.44,2.15.66,3.28.66,3.41h.38c0-.13.19-1.26.57-3.41s.92-4.55,1.61-7.21l6.64-25.68h13.17l-14.69,50.8h-14.5l-6.16-20.19q-1.43-5-2.46-9.95t-1-5.4h-.19q-.09.38-1.13,5.4t-2.66,9.95l-6.25,20.19H87.14Z"/><path d="M189,145.27a36.15,36.15,0,0,0-.28-4.83,8.42,8.42,0,0,0-1.23-3.6,5.84,5.84,0,0,0-2.75-2.18,8.78,8.78,0,0,0-3.79-.76q-5,0-7.68,3c-1.7,2-2.56,4.9-2.56,8.63v29.38H155.59v-50.8h14.5v8.34h.19a17.19,17.19,0,0,1,6-6.63q4-2.66,10.52-2.75,9.1,0,13.18,4.74T204,142v33H189Z"/><path d="M260.11,160.15a17,17,0,0,1-7.49,11.76q-6.15,4.26-16.58,4.36-12.33-.2-18.67-7.3t-6.45-19.53q.09-11.83,6.64-19.14t18.67-7.39q12.79.28,18.57,7.48t5.79,18.68v4h-34.5q.47,6.82,3.12,9.95a8.92,8.92,0,0,0,7.3,3.13c2.91-.07,5-.7,6.26-1.9a7.7,7.7,0,0,0,2.56-4.08Zm-14.88-16.39a16.22,16.22,0,0,0-2.56-8.44,7.42,7.42,0,0,0-6.44-3,8.5,8.5,0,0,0-7.11,3.13c-1.64,2.08-2.66,5.08-3,9h19.14Z"/><path d="M268.11,124.14h14.22v10.71h.19a17.05,17.05,0,0,1,6.91-8.63,18.23,18.23,0,0,1,9.86-2.93h.85v13.64h-2.65q-6.92-.09-10.61,2.75t-3.79,10.14v25.12h-15Z"/><path d="M332.62,138.26a5.87,5.87,0,0,0-2-4.07A9.52,9.52,0,0,0,320,134a4.57,4.57,0,0,0-1.8,3.79,4.62,4.62,0,0,0,1.32,3.41,8.61,8.61,0,0,0,4.55,1.71l8.63,1.13q7,.86,10.8,4.46T347.41,159q-.2,8.52-6.16,12.89t-15.93,4.45q-11.28-.2-16.58-4.74a15.43,15.43,0,0,1-5.69-11.46h13.84A6.49,6.49,0,0,0,319,164.8q2,1.8,6.45,1.89a10.66,10.66,0,0,0,5.88-1.42,5,5,0,0,0,2.18-4.17,4.28,4.28,0,0,0-1.24-3.5q-1.32-1.23-4.83-1.71l-8.15-1.14q-7.11-.94-11-4.64t-3.89-10.52a15.43,15.43,0,0,1,5.12-11.66q5.12-4.83,15.92-5,9.94.09,15,4.36a15,15,0,0,1,5.5,11Z"/><path d="M388,145.18a36.15,36.15,0,0,0-.28-4.83,8.3,8.3,0,0,0-1.23-3.51,5.84,5.84,0,0,0-2.75-2.18,8.78,8.78,0,0,0-3.79-.76q-5,0-7.68,3c-1.71,2-2.56,4.9-2.56,8.63v29.38H354.59V100.26h15.07v32h.19a16.26,16.26,0,0,1,5.69-6.35,18.1,18.1,0,0,1,10.23-2.84q9.11,0,13.18,4.74T403,142v33H388Z"/><path d="M412.47,101.68h15.26v13.65H412.47Zm.09,22.46h15.07v50.8H412.56Z"/><path d="M437.58,124.14h14.5v8.25h.19a17.74,17.74,0,0,1,5.78-6.45A19,19,0,0,1,468.28,123a18.39,18.39,0,0,1,14.6,6.16q5.6,6.26,5.78,20.19-.09,12.79-6,19.81t-15.83,7A16.91,16.91,0,0,1,458,173.9a13,13,0,0,1-5-5.31h-.28v24.17H437.58Zm14.88,28.15a17.29,17.29,0,0,0,2.56,9.86,9.12,9.12,0,0,0,7.86,4,8.56,8.56,0,0,0,7.68-4.17c1.83-2.85,2.75-7,2.75-12.42s-.86-9.41-2.56-12.13-4.36-4.08-8-4.08a9.39,9.39,0,0,0-7.4,3.6q-2.83,3.51-2.93,9.86Z"/></g><path id="Emblem" class="cls-1" d="M647.5,80.77V48.23a24.19,24.19,0,1,0-5.37,0V75.66a23.71,23.71,0,0,0-7.29-8.32c-7.9-5.53-18.3-5.53-30.34-5.53-11.13,0-20.75,0-27.25-4.55a20.27,20.27,0,0,1-7.08-9.63,24.23,24.23,0,1,0-6,.74h.52c2.07,5.94,5.17,10.28,9.45,13.28,7.9,5.53,18.3,5.53,30.34,5.53,11.13,0,20.75,0,27.25,4.55a20.34,20.34,0,0,1,7.09,9.63,24.19,24.19,0,1,0,8.66-.6M545.38,24.19A18.81,18.81,0,1,1,564.19,43a18.83,18.83,0,0,1-18.81-18.81m80.62,0A18.82,18.82,0,1,1,644.81,43,18.84,18.84,0,0,1,626,24.19"/></svg>